<svg xmlns="http://www.w3.org/2000/svg" viewBox="0 0 464.04 74.24"><defs><style>.cls-1{fill:#fff;}</style></defs><title>ButtonAsset 2</title><g id="Layer_2" data-name="Layer 2"><g id="Layer_1-2" data-name="Layer 1"><path class="cls-1" d="M0,4.25H14.55l14.18,35,14-35H57.25V54.8H44.93V24.48L33.63,54.8H23.69L12.31,24.41V54.8H0Z"/><path class="cls-1" d="M93.82,14.62h13.32L81.94,73.88H68.69L77.9,53.43,61.56,14.62H75.31L84.6,39.75Z"/><path class="cls-1" d="M134.35,55.3c-10.08,0-17.21-5.62-17.35-13.9h7c.44,4.18,3.39,8.36,10.37,8.36,6.34,0,10.08-3.6,10.08-8.36,0-13.53-27.14-4.89-27.14-23.54C117.29,9.58,124,4,133.92,4c9.58,0,15.84,5.26,16.63,12.89h-7.2c-.43-3.38-3.6-7.2-9.72-7.27-5.4-.15-9.65,2.66-9.65,8.06,0,13,27.08,4.9,27.08,23.48C151.06,48.24,145.22,55.3,134.35,55.3Z"/><path class="cls-1" d="M162.14,20.74H157v-5.4h5.11V5.4h6.55v9.94H179v5.4h-10.3V44c0,3.88,1.44,5.25,5.48,5.25H179V54.8h-5.9c-7,0-11-2.88-11-10.8Z"/><path class="cls-1" d="M193.46,54.8h-6.55V15.34h6.55v6.41c2.23-4.4,6.48-7.13,12.75-7.13v6.77h-1.73c-6.27,0-11,2.8-11,12Z"/><path class="cls-1" d="M227.16,14.69c7.34,0,12.38,3.74,14.69,7.85v-7.2h6.62V54.8h-6.62V47.45c-2.38,4.25-7.49,8-14.76,8-10.52,0-18.65-8.28-18.65-20.52S216.57,14.69,227.16,14.69Zm1.29,5.69c-7.2,0-13.32,5.25-13.32,14.54s6.12,14.76,13.32,14.76,13.4-5.4,13.4-14.68S235.65,20.38,228.45,20.38Z"/><path class="cls-1" d="M261,20.74h-5.12v-5.4H261V5.4h6.55v9.94h10.3v5.4h-10.3V44c0,3.88,1.44,5.25,5.47,5.25h4.83V54.8h-5.91C265,54.8,261,51.92,261,44Z"/><path class="cls-1" d="M302.83,55.44c-11.23,0-19.51-7.92-19.51-20.44s8-20.31,19.51-20.31,18.94,8.06,18.94,18.87a34.15,34.15,0,0,1-.22,4H290c.51,8,6.12,12.38,12.82,12.38,5.9,0,9.65-3,11.09-7.27H321C319,49.83,312.62,55.44,302.83,55.44ZM290.09,32.19H315c.07-7.71-5.69-12-12.46-12C296.13,20.23,290.81,24.48,290.09,32.19Z"/><path class="cls-1" d="M345.24,14.69c7.2,0,12.38,3.6,14.69,7.85v-7.2h6.62V55.66c0,10.87-7.27,18.58-18.86,18.58-10.37,0-17.79-5.26-19.09-13.68h6.48c1.44,4.75,6.12,8,12.61,8,7,0,12.24-4.46,12.24-12.89V47.38c-2.38,4.25-7.49,8.06-14.69,8.06-10.59,0-18.72-8.28-18.72-20.52S334.65,14.69,345.24,14.69Zm1.29,5.69c-7.2,0-13.32,5.25-13.32,14.54s6.12,14.76,13.32,14.76,13.4-5.4,13.4-14.68S353.73,20.38,346.53,20.38Z"/><path class="cls-1" d="M375.12,4.46a4.39,4.39,0,1,1,8.78,0,4.39,4.39,0,1,1-8.78,0Zm1.08,10.88h6.55V54.8H376.2Z"/><path class="cls-1" d="M409.53,55.44C398.3,55.44,390,47.52,390,35s8-20.31,19.51-20.31,18.94,8.06,18.94,18.87a34.15,34.15,0,0,1-.22,4H396.72c.5,8,6.12,12.38,12.81,12.38,5.91,0,9.65-3,11.09-7.27h7.06C425.66,49.83,419.32,55.44,409.53,55.44ZM396.79,32.19H421.7c.07-7.71-5.69-12-12.46-12C402.84,20.23,397.51,24.48,396.79,32.19Z"/><path class="cls-1" d="M449.64,55.44c-9.22,0-15.7-5-16.13-12.24h6.77c.36,3.82,3.74,6.7,9.28,6.7,5.19,0,8.07-2.59,8.07-5.83,0-8.79-23.33-3.67-23.33-18.36,0-6.05,5.69-11,14.47-11s14.48,4.68,14.91,12.38h-6.56c-.28-4-3.31-6.84-8.56-6.84-4.83,0-7.71,2.31-7.71,5.48,0,9.36,22.9,4.24,23.19,18.36C464,50.55,458.35,55.44,449.64,55.44Z"/></g></g></svg>